<svg id="Layer_1" data-name="Layer 1" xmlns="http://www.w3.org/2000/svg" xmlns:xlink="http://www.w3.org/1999/xlink" viewBox="0 0 24 24"><defs><style>.cls-1{fill-rule:evenodd;fill:url(#linear-gradient);}</style><linearGradient id="linear-gradient" x1="2.94" y1="16.65" x2="24.29" y2="5.69" gradientUnits="userSpaceOnUse"><stop offset="0" stop-color="#ee0979"/><stop offset="1" stop-color="#ff6a00"/></linearGradient></defs><title>spotify</title><path class="cls-1" d="M19.1,10.64C15.23,8.34,8.85,8.13,5.16,9.25A1.12,1.12,0,1,1,4.51,7.1c4.23-1.28,11.28-1,15.73,1.61a1.12,1.12,0,1,1-1.14,1.93ZM19,14a.94.94,0,0,1-1.29.31A15.73,15.73,0,0,0,5.73,13a.94.94,0,0,1-.55-1.79,17.54,17.54,0,0,1,13.48,1.59A.94.94,0,0,1,19,14ZM17.5,17.31a.75.75,0,0,1-1,.25c-2.82-1.73-6.37-2.11-10.55-1.16a.75.75,0,0,1-.33-1.46c4.57-1,8.49-.59,11.66,1.34A.75.75,0,0,1,17.5,17.31ZM12,0A12,12,0,1,0,24,12,12,12,0,0,0,12,0Z" transform="translate(0 0)"/></svg>