<?xml version="1.0" encoding="utf-8"?>
<!-- Generator: Adobe Illustrator 23.1.1, SVG Export Plug-In . SVG Version: 6.00 Build 0)  -->
<svg version="1.1" id="Layer_1" xmlns="http://www.w3.org/2000/svg" xmlns:xlink="http://www.w3.org/1999/xlink" x="0px" y="0px"
	 viewBox="0 0 20 20" style="enable-background:new 0 0 20 20;" xml:space="preserve">
<style type="text/css">
	.st0{fill:url(#SVGID_1_);}
</style>
<linearGradient id="SVGID_1_" gradientUnits="userSpaceOnUse" x1="3.4281" y1="13.3466" x2="17.3992" y2="-0.9645">
	<stop  offset="0" style="stop-color:#EE0979"/>
	<stop  offset="1" style="stop-color:#FF6A00"/>
</linearGradient>
<path class="st0" d="M20,3.8c-0.7,0.3-1.5,0.5-2.4,0.6c0.8-0.5,1.5-1.3,1.8-2.3c-0.8,0.5-1.7,0.8-2.6,1c-0.7-0.8-1.8-1.3-3-1.3
	c-2.6,0-4.6,2.5-4,5C6.4,6.7,3.4,5.1,1.4,2.6C0.3,4.5,0.8,6.9,2.7,8.1C2,8.1,1.4,7.9,0.8,7.6c0,1.9,1.3,3.7,3.3,4.1
	c-0.6,0.2-1.2,0.2-1.9,0.1c0.5,1.6,2,2.8,3.8,2.8c-1.7,1.4-3.9,2-6.1,1.7c1.8,1.2,4,1.8,6.3,1.8c7.6,0,11.9-6.4,11.7-12.2
	C18.8,5.3,19.5,4.6,20,3.8z"/>
</svg>
